<?xml version="1.0" encoding="UTF-8" standalone="no"?>
<!DOCTYPE svg PUBLIC "-//W3C//DTD SVG 1.1//EN" "http://www.w3.org/Graphics/SVG/1.1/DTD/svg11.dtd">
<svg version="1.1" xmlns="http://www.w3.org/2000/svg" xmlns:xlink="http://www.w3.org/1999/xlink" preserveAspectRatio="xMidYMid meet" viewBox="0 0 640 640" width="640" height="640"><defs><path d="M453.1 243.66L428.52 241.93L432.58 230.03L436.64 218.12L457.16 231.76L477.67 245.4L453.1 243.66Z" id="h3rmp09iJL"></path><path d="M421.33 260.98L405.52 303.83L390.12 294.32L374.71 284.81L405.92 251.47L437.14 218.12L421.33 260.98Z" id="fBT42juCb"></path><path d="M349.97 268.8L405.92 304.43L363.8 333.68L321.67 362.93L307.84 298.05L294.02 233.18L349.97 268.8Z" id="a2ENptYSd4"></path><path d="M387.05 354.2L369.26 402.64L344.63 383.59L320 364.54L362.42 335.15L404.84 305.76L387.05 354.2Z" id="e1aOXFqzY9"></path><path d="M369.9 405.58L242.25 468.03L320.78 367.29L369.9 405.58Z" id="i4dIyI7MZO"></path><path d="M221.58 278.23L292.11 232.66L304.67 290.36L317.23 348.06L234.14 335.93L151.06 323.8L221.58 278.23Z" id="b27arIBru"></path><path d="M311.85 375.44L197.4 361.04L252.99 338.79" id="a3er9fdFjH"></path><path d="M148.53 325.78C148.53 329.95 144.93 333.34 140.5 333.34C136.06 333.34 132.46 329.95 132.46 325.78C132.46 321.6 136.06 318.21 140.5 318.21C144.93 318.21 148.53 321.6 148.53 325.78Z" id="j93y4fBryw"></path><path d="M254.63 479.6L229.87 453.88" id="a1EPQBhgJf"></path></defs><g><g><g><use xlink:href="#h3rmp09iJL" opacity="1" fill="#ffc200" fill-opacity="1"></use><g><use xlink:href="#h3rmp09iJL" opacity="1" fill-opacity="0" stroke="#0a1c10" stroke-width="2" stroke-opacity="1"></use></g></g><g><use xlink:href="#fBT42juCb" opacity="1" fill="#018fff" fill-opacity="0.67"></use><g><use xlink:href="#fBT42juCb" opacity="1" fill-opacity="0" stroke="#0a1c10" stroke-width="2" stroke-opacity="1"></use></g></g><g><use xlink:href="#a2ENptYSd4" opacity="1" fill="#ffc200" fill-opacity="1"></use><g><use xlink:href="#a2ENptYSd4" opacity="1" fill-opacity="0" stroke="#0a1c10" stroke-width="2" stroke-opacity="1"></use></g></g><g><use xlink:href="#e1aOXFqzY9" opacity="1" fill="#b20497" fill-opacity="0"></use><g><use xlink:href="#e1aOXFqzY9" opacity="1" fill-opacity="0" stroke="#0a1c10" stroke-width="2" stroke-opacity="1"></use></g></g><g><use xlink:href="#i4dIyI7MZO" opacity="1" fill="#018fff" fill-opacity="0.63"></use><g><use xlink:href="#i4dIyI7MZO" opacity="1" fill-opacity="0" stroke="#0a1c10" stroke-width="2" stroke-opacity="1"></use></g></g><g><use xlink:href="#b27arIBru" opacity="1" fill="#b20497" fill-opacity="0"></use><g><use xlink:href="#b27arIBru" opacity="1" fill-opacity="0" stroke="#0a1c10" stroke-width="2" stroke-opacity="1"></use></g></g><g><use xlink:href="#a3er9fdFjH" opacity="1" fill="#b20497" fill-opacity="0"></use><g><use xlink:href="#a3er9fdFjH" opacity="1" fill-opacity="0" stroke="#0a1c10" stroke-width="2" stroke-opacity="1"></use></g></g><g><use xlink:href="#j93y4fBryw" opacity="1" fill="#ffc200" fill-opacity="0.94"></use><g><use xlink:href="#j93y4fBryw" opacity="1" fill-opacity="0" stroke="#0a1c10" stroke-width="2" stroke-opacity="1"></use></g></g><g><g><use xlink:href="#a1EPQBhgJf" opacity="1" fill-opacity="0" stroke="#0a1c10" stroke-width="2" stroke-opacity="1"></use></g></g></g></g></svg>